<?xml version="1.0" encoding="utf-8"?>
<!-- Generator: Adobe Illustrator 24.3.0, SVG Export Plug-In . SVG Version: 6.00 Build 0)  -->
<svg version="1.1" id="Layer_1" xmlns="http://www.w3.org/2000/svg" xmlns:xlink="http://www.w3.org/1999/xlink" x="0px" y="0px"
	 viewBox="0 0 94 27" style="enable-background:new 0 0 94 27;" xml:space="preserve">
<style type="text/css">
	.st0{fill:#FFFFFF;}
	.st1{fill:#A6A6A6;}
	.st2{fill:url(#SVGID_1_);}
</style>
<g transform="scale(4.00216 4.0011)">
	<path class="st0" d="M23.3,6c0,0.4-0.3,0.6-0.7,0.6c0,0,0,0,0,0H0.8C0.5,6.6,0.2,6.3,0.2,6V0.8c0-0.4,0.3-0.6,0.7-0.6h21.8
		c0.4,0,0.7,0.3,0.7,0.6c0,0,0,0,0,0L23.3,6L23.3,6z"/>
	<path class="st1" d="M22.7,6.7H0.8C0.4,6.7,0,6.4,0,6V0.8C0,0.4,0.4,0,0.8,0h21.8c0.5,0,0.8,0.4,0.8,0.8V6
		C23.5,6.4,23.1,6.7,22.7,6.7L22.7,6.7z"/>
	<path d="M23.3,6c0,0.4-0.3,0.6-0.7,0.6c0,0,0,0,0,0H0.8C0.5,6.6,0.2,6.3,0.2,6V0.8c0-0.4,0.3-0.6,0.7-0.6h21.8
		c0.4,0,0.7,0.3,0.7,0.6c0,0,0,0,0,0L23.3,6L23.3,6z"/>
	<path class="st0" d="M5.2,3.3c0-0.5,0.5-0.8,0.5-0.8C5.5,2.1,5.1,2.1,4.9,2.1c-0.3,0-0.7,0.2-0.8,0.2c-0.2,0-0.4-0.2-0.7-0.2
		C3,2.1,2.6,2.3,2.4,2.6C2,3.3,2.3,4.3,2.7,4.8c0.2,0.3,0.4,0.6,0.7,0.5c0.3,0,0.4-0.2,0.7-0.2c0.3,0,0.4,0.2,0.7,0.2
		c0.3,0,0.5-0.3,0.7-0.5c0.2-0.3,0.3-0.6,0.3-0.6C5.8,4.2,5.3,4,5.2,3.3L5.2,3.3z M4.7,1.7C4.8,1.6,4.9,1.3,4.9,1
		c-0.2,0-0.5,0.1-0.7,0.3C4.1,1.5,4,1.8,4,2C4.3,2.1,4.5,1.9,4.7,1.7z"/>
	
		<linearGradient id="SVGID_1_" gradientUnits="userSpaceOnUse" x1="-175.3627" y1="157.3392" x2="-175.3627" y2="163.4218" gradientTransform="matrix(16.0174 0 0 -16.0088 2826.0881 2525.5779)">
		<stop  offset="0" style="stop-color:#1A1A1A;stop-opacity:0.1"/>
		<stop  offset="0.123" style="stop-color:#212121;stop-opacity:0.151"/>
		<stop  offset="0.308" style="stop-color:#353535;stop-opacity:0.227"/>
		<stop  offset="0.532" style="stop-color:#575757;stop-opacity:0.318"/>
		<stop  offset="0.783" style="stop-color:#858585;stop-opacity:0.421"/>
		<stop  offset="1" style="stop-color:#B3B3B3;stop-opacity:0.51"/>
	</linearGradient>
	<path class="st2" d="M22.7,0H11l4.6,6.7h7.1c0.5,0,0.8-0.4,0.8-0.8V0.8C23.5,0.4,23.1,0,22.7,0z"/>
	<g>
		<path class="st0" d="M9.3,5.3H8.9L8.7,4.7H8L7.8,5.3H7.4l0.7-2.2h0.5C8.6,3.1,9.3,5.3,9.3,5.3z M8.7,4.4L8.5,3.8
			c0-0.1-0.1-0.2-0.1-0.4h0c0,0.1-0.1,0.2-0.1,0.4L8,4.4H8.7z M11.3,4.5c0,0.3-0.1,0.5-0.2,0.7c-0.1,0.1-0.3,0.2-0.5,0.2
			c-0.2,0-0.4-0.1-0.5-0.2V6H9.7V4.2c0-0.2,0-0.4,0-0.5H10L10,4h0c0.1-0.2,0.3-0.3,0.6-0.3c0.2,0,0.4,0.1,0.5,0.2
			C11.2,4,11.3,4.2,11.3,4.5z M10.9,4.5c0-0.2,0-0.3-0.1-0.4C10.7,4,10.6,4,10.4,4c-0.1,0-0.2,0-0.2,0.1c-0.1,0.1-0.1,0.1-0.1,0.2
			c0,0,0,0.1,0,0.1v0.3c0,0.1,0,0.2,0.1,0.3c0.1,0.1,0.2,0.1,0.3,0.1c0.1,0,0.2-0.1,0.3-0.2C10.8,4.8,10.9,4.7,10.9,4.5z M13.2,4.5
			c0,0.3-0.1,0.5-0.2,0.7c-0.1,0.1-0.3,0.2-0.5,0.2c-0.2,0-0.4-0.1-0.5-0.2V6h-0.4V4.2c0-0.2,0-0.4,0-0.5h0.3l0,0.3h0
			c0.1-0.2,0.3-0.3,0.6-0.3c0.2,0,0.4,0.1,0.5,0.2C13.1,4,13.2,4.2,13.2,4.5L13.2,4.5z M12.8,4.5c0-0.2,0-0.3-0.1-0.4
			C12.6,4,12.5,4,12.4,4c-0.1,0-0.2,0-0.2,0.1C12,4.1,12,4.2,12,4.3c0,0,0,0.1,0,0.1v0.3c0,0.1,0,0.2,0.1,0.3
			c0.1,0.1,0.2,0.1,0.3,0.1c0.1,0,0.2-0.1,0.3-0.2C12.8,4.8,12.8,4.7,12.8,4.5z M15.3,4.7c0,0.2-0.1,0.3-0.2,0.5
			c-0.2,0.1-0.4,0.2-0.6,0.2c-0.2,0-0.4,0-0.6-0.1L14,4.9C14.1,5,14.3,5,14.5,5c0.1,0,0.2,0,0.3-0.1C14.9,4.9,15,4.8,15,4.7
			c0-0.1,0-0.2-0.1-0.2c-0.1-0.1-0.2-0.1-0.3-0.2c-0.4-0.1-0.6-0.4-0.6-0.6c0-0.2,0.1-0.3,0.2-0.5C14.3,3.1,14.5,3,14.7,3
			c0.2,0,0.4,0,0.5,0.1l-0.1,0.3c-0.1-0.1-0.3-0.1-0.4-0.1c-0.1,0-0.2,0-0.3,0.1c-0.1,0.1-0.1,0.1-0.1,0.2c0,0.1,0,0.2,0.1,0.2
			C14.5,3.9,14.6,4,14.7,4c0.2,0.1,0.3,0.2,0.4,0.3C15.3,4.4,15.3,4.5,15.3,4.7L15.3,4.7z M16.6,4h-0.4v0.8c0,0.2,0.1,0.3,0.2,0.3
			c0.1,0,0.1,0,0.2,0l0,0.3c-0.1,0-0.2,0-0.3,0c-0.1,0-0.3,0-0.3-0.1c-0.1-0.1-0.1-0.2-0.1-0.4V4h-0.2V3.7h0.2V3.4l0.4-0.1v0.4h0.4
			L16.6,4L16.6,4z M18.4,4.5c0,0.2-0.1,0.5-0.2,0.6c-0.2,0.2-0.4,0.2-0.6,0.2c-0.2,0-0.4-0.1-0.6-0.2c-0.1-0.2-0.2-0.4-0.2-0.6
			c0-0.3,0.1-0.5,0.2-0.6c0.2-0.2,0.4-0.2,0.6-0.2c0.2,0,0.4,0.1,0.6,0.2C18.3,4.1,18.4,4.3,18.4,4.5z M18,4.5c0-0.1,0-0.3-0.1-0.4
			c-0.1-0.1-0.2-0.2-0.3-0.2c-0.1,0-0.3,0.1-0.3,0.2c-0.1,0.1-0.1,0.2-0.1,0.4c0,0.1,0,0.3,0.1,0.4c0.1,0.1,0.2,0.2,0.3,0.2
			c0.1,0,0.3-0.1,0.3-0.2C18,4.8,18,4.7,18,4.5L18,4.5z M19.6,4c0,0-0.1,0-0.1,0c-0.1,0-0.2,0-0.3,0.1c-0.1,0.1-0.1,0.2-0.1,0.3v0.8
			h-0.4V4.2c0-0.2,0-0.3,0-0.5H19L19,4h0c0-0.1,0.1-0.2,0.2-0.3c0.1-0.1,0.2-0.1,0.3-0.1c0,0,0.1,0,0.1,0L19.6,4L19.6,4z M21.3,4.4
			c0,0.1,0,0.1,0,0.2h-1.1c0,0.2,0.1,0.3,0.2,0.4c0.1,0.1,0.2,0.1,0.4,0.1c0.2,0,0.3,0,0.5-0.1l0.1,0.2c-0.2,0.1-0.3,0.1-0.6,0.1
			c-0.3,0-0.5-0.1-0.6-0.2c-0.1-0.1-0.2-0.3-0.2-0.6c0-0.2,0.1-0.4,0.2-0.6c0.1-0.2,0.3-0.3,0.6-0.3c0.2,0,0.4,0.1,0.5,0.3
			C21.2,4.1,21.3,4.2,21.3,4.4z M20.9,4.3c0-0.1,0-0.2-0.1-0.3c-0.1-0.1-0.2-0.2-0.3-0.2c-0.1,0-0.2,0-0.3,0.1
			c-0.1,0.1-0.1,0.2-0.1,0.3L20.9,4.3L20.9,4.3z"/>
	</g>
	<g>
		<path class="st0" d="M7.9,2.3c-0.1,0-0.2,0-0.3,0V1.2c0.1,0,0.2,0,0.3,0c0.4,0,0.6,0.2,0.6,0.5C8.5,2.1,8.3,2.3,7.9,2.3z M7.9,1.3
			c-0.1,0-0.1,0-0.1,0v0.8c0,0,0.1,0,0.1,0c0.3,0,0.4-0.2,0.4-0.4C8.3,1.4,8.2,1.3,7.9,1.3z M9.1,2.3c-0.2,0-0.4-0.2-0.4-0.4
			c0-0.2,0.2-0.4,0.4-0.4c0.2,0,0.4,0.2,0.4,0.4C9.6,2.1,9.4,2.3,9.1,2.3z M9.2,1.6C9,1.6,8.9,1.7,8.9,1.9C8.9,2,9,2.2,9.2,2.2
			c0.1,0,0.2-0.1,0.2-0.3C9.4,1.7,9.3,1.6,9.2,1.6L9.2,1.6z M10.9,1.5l-0.3,0.8h-0.2l-0.1-0.3c0-0.1,0-0.2-0.1-0.3h0
			c0,0.1,0,0.2-0.1,0.3l-0.1,0.3H10L9.7,1.5h0.2L10,1.8c0,0.1,0,0.2,0.1,0.3h0c0-0.1,0-0.2,0.1-0.3l0.1-0.4h0.1l0.1,0.4
			c0,0.1,0,0.2,0.1,0.3h0c0-0.1,0-0.2,0.1-0.3l0.1-0.4L10.9,1.5L10.9,1.5z M11.9,2.3h-0.2V1.8c0-0.1-0.1-0.2-0.2-0.2
			c-0.1,0-0.2,0.1-0.2,0.2v0.5h-0.2V1.7c0-0.1,0-0.1,0-0.2h0.2l0,0.1h0c0-0.1,0.1-0.1,0.3-0.1c0.2,0,0.3,0.1,0.3,0.3L11.9,2.3
			L11.9,2.3z M12.4,2.3h-0.2V1.1h0.2V2.3z M13,2.3c-0.2,0-0.4-0.2-0.4-0.4c0-0.2,0.2-0.4,0.4-0.4c0.2,0,0.4,0.2,0.4,0.4
			C13.4,2.1,13.3,2.3,13,2.3z M13,1.6c-0.1,0-0.2,0.1-0.2,0.3c0,0.2,0.1,0.3,0.2,0.3c0.1,0,0.2-0.1,0.2-0.3
			C13.3,1.7,13.2,1.6,13,1.6L13,1.6z M14.2,2.3L14.2,2.3L14.2,2.3c-0.1,0-0.2,0-0.3,0c-0.1,0-0.3-0.1-0.3-0.2c0-0.2,0.2-0.3,0.5-0.3
			v0c0-0.1-0.1-0.2-0.2-0.2c-0.1,0-0.2,0-0.2,0.1l0-0.1c0.1,0,0.2-0.1,0.3-0.1c0.2,0,0.3,0.1,0.3,0.3v0.3c0,0.1,0,0.1,0,0.2
			L14.2,2.3L14.2,2.3z M14.1,1.9c-0.2,0-0.3,0-0.3,0.2c0,0.1,0.1,0.1,0.1,0.1c0.1,0,0.2-0.1,0.2-0.2V1.9z M15.2,2.3l0-0.1h0
			c-0.1,0.1-0.1,0.1-0.3,0.1c-0.2,0-0.3-0.2-0.3-0.4c0-0.2,0.2-0.4,0.4-0.4c0.1,0,0.2,0,0.2,0.1h0V1.1h0.2v0.9c0,0.1,0,0.1,0,0.2
			H15.2L15.2,2.3z M15.2,1.8c0-0.1-0.1-0.2-0.2-0.2c-0.1,0-0.2,0.1-0.2,0.3c0,0.2,0.1,0.3,0.2,0.3c0.1,0,0.2-0.1,0.2-0.2L15.2,1.8
			L15.2,1.8z M16.5,2.3c-0.2,0-0.4-0.2-0.4-0.4c0-0.2,0.2-0.4,0.4-0.4c0.2,0,0.4,0.2,0.4,0.4C16.9,2.1,16.8,2.3,16.5,2.3L16.5,2.3z
			 M16.5,1.6c-0.1,0-0.2,0.1-0.2,0.3c0,0.2,0.1,0.3,0.2,0.3c0.1,0,0.2-0.1,0.2-0.3C16.7,1.7,16.7,1.6,16.5,1.6L16.5,1.6z M17.9,2.3
			h-0.2V1.8c0-0.1-0.1-0.2-0.2-0.2c-0.1,0-0.2,0.1-0.2,0.2v0.5h-0.2V1.7c0-0.1,0-0.1,0-0.2h0.2l0,0.1h0c0-0.1,0.1-0.1,0.3-0.1
			c0.2,0,0.3,0.1,0.3,0.3V2.3z M19.1,1.6h-0.2V2c0,0.1,0,0.1,0.1,0.1c0,0,0.1,0,0.1,0l0,0.1c0,0-0.1,0-0.1,0c-0.1,0-0.2-0.1-0.2-0.3
			V1.6h-0.1V1.5h0.1V1.3l0.2-0.1v0.2h0.2V1.6L19.1,1.6z M20.1,2.3h-0.2V1.8c0-0.1-0.1-0.2-0.2-0.2c-0.1,0-0.2,0.1-0.2,0.2v0.5h-0.2
			V1.1h0.2v0.5h0c0.1-0.1,0.1-0.1,0.2-0.1c0.2,0,0.3,0.1,0.3,0.3V2.3L20.1,2.3z M21.1,1.9h-0.5c0,0.2,0.1,0.2,0.3,0.2
			c0.1,0,0.2,0,0.2,0l0,0.1c-0.1,0-0.2,0-0.3,0c-0.3,0-0.4-0.2-0.4-0.4c0-0.2,0.2-0.4,0.4-0.4C21,1.5,21.1,1.6,21.1,1.9
			C21.1,1.9,21.1,1.9,21.1,1.9L21.1,1.9z M20.9,1.8c0-0.1-0.1-0.2-0.2-0.2c-0.1,0-0.2,0.1-0.2,0.2H20.9L20.9,1.8z"/>
	</g>
</g>
</svg>
