<?xml version="1.0" encoding="utf-8"?>
<!-- Generator: Adobe Illustrator 24.3.0, SVG Export Plug-In . SVG Version: 6.00 Build 0)  -->
<svg version="1.1" id="Layer_1" xmlns="http://www.w3.org/2000/svg" xmlns:xlink="http://www.w3.org/1999/xlink" x="0px" y="0px"
	 viewBox="0 0 94 27" style="enable-background:new 0 0 94 27;" xml:space="preserve">
<style type="text/css">
	.st0{clip-path:url(#SVGID_2_);fill:url(#SVGID_3_);}
	.st1{clip-path:url(#SVGID_5_);fill:url(#SVGID_6_);}
	.st2{clip-path:url(#SVGID_8_);fill:url(#SVGID_9_);}
	.st3{clip-path:url(#SVGID_11_);fill:url(#SVGID_12_);}
	.st4{fill:#F9F9F9;}
	.st5{fill:#F9F9FA;}
</style>
<g>
	<path d="M94,23.4c0,2-1.9,3.6-4.2,3.6H4.2C1.9,27,0,25.4,0,23.4V3.6C0,1.6,1.9,0,4.2,0h85.7C92.1,0,94,1.6,94,3.6L94,23.4L94,23.4
		L94,23.4z"/>
	<g>
		<defs>
			<path id="SVGID_1_" d="M20.4,11.9l-4.2-2.1c0,0-7.7-3.9-8.2-4.1C7.5,5.4,7.1,5.5,7.1,6v16.9c0,0.4,0.3,0.5,0.7,0.3
				c0.4-0.2,8.4-4.2,8.4-4.2l4.2-2.1c0,0,3.6-1.8,4.1-2.1c0.5-0.2,0.4-0.6,0-0.8C24.1,13.8,20.4,11.9,20.4,11.9L20.4,11.9z"/>
		</defs>
		<clipPath id="SVGID_2_">
			<use xlink:href="#SVGID_1_"  style="overflow:visible;"/>
		</clipPath>
		
			<linearGradient id="SVGID_3_" gradientUnits="userSpaceOnUse" x1="741.0264" y1="-1659.3693" x2="741.0264" y2="-1657.8456" gradientTransform="matrix(12 0 0 12 -8880.0166 19917.6289)">
			<stop  offset="0" style="stop-color:#257CB0"/>
			<stop  offset="0.286" style="stop-color:#4A93B5"/>
			<stop  offset="0.767" style="stop-color:#78BCBB"/>
			<stop  offset="1" style="stop-color:#89CFBD"/>
		</linearGradient>
		<path class="st0" d="M7.1,5.2v18.3l10.5-9.1L7.1,5.2z"/>
	</g>
	<g>
		<defs>
			<path id="SVGID_4_" d="M20.4,11.9l-4.2-2.1c0,0-7.7-3.9-8.2-4.1C7.5,5.4,7.1,5.5,7.1,6v16.9c0,0.4,0.3,0.5,0.7,0.3
				c0.4-0.2,8.4-4.2,8.4-4.2l4.2-2.1c0,0,3.6-1.8,4.1-2.1c0.5-0.2,0.4-0.6,0-0.8C24.1,13.8,20.4,11.9,20.4,11.9L20.4,11.9z"/>
		</defs>
		<clipPath id="SVGID_5_">
			<use xlink:href="#SVGID_4_"  style="overflow:visible;"/>
		</clipPath>
		
			<linearGradient id="SVGID_6_" gradientUnits="userSpaceOnUse" x1="740.5889" y1="-1658.9911" x2="741.699" y2="-1658.9911" gradientTransform="matrix(12 0 0 12 -8880.0166 19917.6289)">
			<stop  offset="0" style="stop-color:#52C1AD"/>
			<stop  offset="1" style="stop-color:#DEE89A"/>
		</linearGradient>
		<path class="st1" d="M20.4,11.9l-4.2-2.1L7.1,5.1v0.1l10.5,9.1L20.4,11.9z"/>
	</g>
	<g>
		<defs>
			<path id="SVGID_7_" d="M20.4,11.9l-4.2-2.1c0,0-7.7-3.9-8.2-4.1C7.5,5.4,7.1,5.5,7.1,6v16.9c0,0.4,0.3,0.5,0.7,0.3
				c0.4-0.2,8.4-4.2,8.4-4.2l4.2-2.1c0,0,3.6-1.8,4.1-2.1c0.5-0.2,0.4-0.6,0-0.8C24.1,13.8,20.4,11.9,20.4,11.9L20.4,11.9z"/>
		</defs>
		<clipPath id="SVGID_8_">
			<use xlink:href="#SVGID_7_"  style="overflow:visible;"/>
		</clipPath>
		
			<linearGradient id="SVGID_9_" gradientUnits="userSpaceOnUse" x1="741.1439" y1="-1658.6074" x2="741.1439" y2="-1657.84" gradientTransform="matrix(12 0 0 12 -8880.0166 19917.6289)">
			<stop  offset="0" style="stop-color:#EC413D"/>
			<stop  offset="0.167" style="stop-color:#DA4452"/>
			<stop  offset="0.575" style="stop-color:#B0487A"/>
			<stop  offset="0.862" style="stop-color:#954A92"/>
			<stop  offset="1" style="stop-color:#8A4A9D"/>
		</linearGradient>
		<path class="st2" d="M7.1,23.5L7.1,23.5l9.1-4.5l4.2-2.1l-2.8-2.5L7.1,23.5z"/>
	</g>
	<g>
		<defs>
			<path id="SVGID_10_" d="M20.4,11.9l-4.2-2.1c0,0-7.7-3.9-8.2-4.1C7.5,5.4,7.1,5.5,7.1,6v16.9c0,0.4,0.3,0.5,0.7,0.3
				c0.4-0.2,8.4-4.2,8.4-4.2l4.2-2.1c0,0,3.6-1.8,4.1-2.1c0.5-0.2,0.4-0.6,0-0.8C24.1,13.8,20.4,11.9,20.4,11.9L20.4,11.9z"/>
		</defs>
		<clipPath id="SVGID_11_">
			<use xlink:href="#SVGID_10_"  style="overflow:visible;"/>
		</clipPath>
		
			<linearGradient id="SVGID_12_" gradientUnits="userSpaceOnUse" x1="741.7833" y1="-1658.812" x2="741.7833" y2="-1658.4027" gradientTransform="matrix(12 0 0 12 -8880.0166 19917.6289)">
			<stop  offset="0" style="stop-color:#F58879"/>
			<stop  offset="0.119" style="stop-color:#F69079"/>
			<stop  offset="0.713" style="stop-color:#FCB877"/>
			<stop  offset="1" style="stop-color:#FEC874"/>
		</linearGradient>
		<path class="st3" d="M20.4,11.9l-2.8,2.5l2.8,2.5l4.8-2.5L20.4,11.9z"/>
	</g>
	<path class="st4" d="M73.2,17.9c-0.4,0-0.8-0.1-1.1-0.2c-0.3-0.1-0.6-0.3-0.8-0.6h-0.1c0,0.3,0.1,0.6,0.1,0.9v2.2h-0.9v-7.7h0.7
		l0.1,0.7h0c0.2-0.3,0.5-0.5,0.8-0.6c0.3-0.1,0.7-0.2,1.1-0.2c0.8,0,1.4,0.2,1.9,0.7c0.4,0.5,0.7,1.2,0.7,2c0,0.9-0.2,1.6-0.7,2
		C74.6,17.7,73.9,17.9,73.2,17.9L73.2,17.9z M73,13.1c-0.6,0-1.1,0.2-1.3,0.5c-0.3,0.3-0.4,0.8-0.4,1.4v0.2c0,0.7,0.1,1.3,0.4,1.6
		c0.3,0.3,0.7,0.5,1.4,0.5c0.5,0,0.9-0.2,1.2-0.6c0.3-0.4,0.4-0.9,0.4-1.5c0-0.7-0.1-1.2-0.4-1.5C74,13.3,73.6,13.1,73,13.1L73,13.1
		z M77.8,17.8h-0.9v-7.5h0.9V17.8z M83.1,17.8l-0.2-0.8h0c-0.3,0.3-0.6,0.6-0.9,0.7c-0.3,0.1-0.7,0.2-1.1,0.2
		c-0.6,0-1.1-0.1-1.4-0.4c-0.3-0.3-0.5-0.7-0.5-1.2c0-1.1,1-1.6,2.9-1.7l1,0v-0.3c0-0.4-0.1-0.7-0.3-0.9c-0.2-0.2-0.5-0.3-1-0.3
		c-0.5,0-1.1,0.1-1.7,0.4l-0.3-0.6c0.3-0.1,0.6-0.3,1-0.3c0.4-0.1,0.7-0.1,1.1-0.1c0.7,0,1.3,0.1,1.6,0.4c0.3,0.3,0.5,0.7,0.5,1.4
		v3.6L83.1,17.8L83.1,17.8L83.1,17.8z M81,17.2c0.6,0,1-0.1,1.3-0.4c0.3-0.3,0.5-0.7,0.5-1.2v-0.5l-0.9,0c-0.7,0-1.3,0.1-1.6,0.3
		c-0.3,0.2-0.5,0.5-0.5,0.8c0,0.3,0.1,0.5,0.3,0.7C80.4,17.2,80.6,17.2,81,17.2L81,17.2z M84.3,12.5h1l1.3,3
		c0.3,0.7,0.5,1.2,0.5,1.5h0c0-0.2,0.1-0.4,0.3-0.8c0.2-0.4,0.7-1.6,1.5-3.7h1l-2.6,6.1c-0.3,0.6-0.6,1-0.9,1.3
		c-0.3,0.3-0.8,0.4-1.3,0.4c-0.3,0-0.6,0-0.8-0.1v-0.6c0.2,0,0.4,0.1,0.7,0.1c0.6,0,1.1-0.3,1.3-0.9l0.3-0.8L84.3,12.5L84.3,12.5z
		 M56.2,13c0.3,0.2,0.9,0.7,0.9,1.5c0,0.8-0.5,1.2-1.1,1.6c-0.2,0.1-0.4,0.3-0.4,0.5c0,0.2,0.2,0.4,0.3,0.5l0.5,0.3
		c0.6,0.4,1.1,0.8,1.1,1.6c0,1-1.2,2.1-3.3,2.1c-1.8,0-2.7-0.8-2.7-1.6c0-0.4,0.2-1,1-1.4c0.8-0.4,1.8-0.5,2.4-0.5
		c-0.2-0.2-0.4-0.4-0.4-0.8c0-0.2,0.1-0.3,0.1-0.4c-0.1,0-0.3,0-0.4,0c-1.3,0-2.1-0.9-2.1-1.7c0-0.5,0.3-1.1,0.8-1.5
		c0.7-0.5,1.6-0.6,2.3-0.6h2.6L56.9,13L56.2,13L56.2,13L56.2,13z M55.3,17.9c-0.1,0-0.2,0-0.3,0c-0.1,0-0.8,0-1.3,0.2
		c-0.3,0.1-1.1,0.4-1.1,1.1c0,0.8,0.9,1.4,2.2,1.4c1.2,0,1.9-0.5,1.9-1.2C56.6,18.8,56.2,18.5,55.3,17.9L55.3,17.9z M55.6,15.8
		c0.3-0.3,0.3-0.6,0.3-0.8c0-0.8-0.5-2-1.6-2c-0.3,0-0.7,0.1-0.9,0.4c-0.2,0.2-0.3,0.5-0.3,0.8c0,0.7,0.5,2,1.6,2
		C55.1,16.1,55.4,16,55.6,15.8L55.6,15.8z M48.2,17.8c-2,0-3.1-1.4-3.1-2.6c0-1.5,1.4-2.7,3.3-2.7c1.9,0,3,1.3,3,2.6
		C51.4,16.4,50.3,17.8,48.2,17.8L48.2,17.8z M49.8,16.9c0.3-0.4,0.4-0.8,0.4-1.2c0-1-0.5-2.8-2.1-2.8c-0.4,0-0.8,0.1-1.1,0.4
		c-0.5,0.4-0.6,0.9-0.6,1.4c0,1.1,0.6,2.9,2.2,2.9C49,17.4,49.5,17.2,49.8,16.9L49.8,16.9z M41.3,17.8c-2,0-3.1-1.4-3.1-2.6
		c0-1.5,1.4-2.7,3.3-2.7c1.9,0,3,1.3,3,2.6C44.5,16.4,43.4,17.8,41.3,17.8z M42.9,16.9c0.3-0.4,0.4-0.8,0.4-1.2c0-1-0.5-2.8-2.1-2.8
		c-0.4,0-0.8,0.1-1.1,0.4c-0.5,0.4-0.6,0.9-0.6,1.4c0,1.1,0.6,2.9,2.2,2.9C42.1,17.4,42.6,17.2,42.9,16.9z M37.3,17.6l-1.8,0.4
		c-0.7,0.1-1.4,0.2-2.1,0.2c-3.5,0-4.8-2.3-4.8-4c0-2.2,1.9-4.2,5.1-4.2c0.7,0,1.3,0.1,1.9,0.2c1,0.2,1.4,0.5,1.7,0.7l-1.1,0.9
		l-0.4,0.1l0.3-0.4c-0.4-0.4-1.2-1-2.7-1c-2,0-3.5,1.3-3.5,3.3c0,2.1,1.7,4.1,4.5,4.1c0.8,0,1.2-0.1,1.6-0.3v-1.8l-1.9,0.1l1-0.5
		h2.7l-0.3,0.3c-0.1,0.1-0.1,0.1-0.1,0.2c0,0.1,0,0.4,0,0.5L37.3,17.6L37.3,17.6L37.3,17.6z"/>
	<path class="st4" d="M60.2,17.3c-0.4,0-0.5-0.1-0.5-0.5v-6.3c0,0,0,0,0-0.1c0.1-0.4,0.2-0.5,0.6-0.7h-1.8l-1,0.4h1v0l0,0V17
		c0,0.2-0.1,0.3-0.3,0.6h2.3l0.5-0.2C60.6,17.3,60.4,17.3,60.2,17.3L60.2,17.3z M65.4,17.4c-0.1,0.1-0.3,0.1-0.4,0.2
		c-0.4,0.2-0.8,0.2-1.2,0.2c-0.4,0-1,0-1.7-0.4c-0.9-0.6-1.3-1.5-1.3-2.3c0-1.7,1.6-2.6,2.9-2.6c0.5,0,0.9,0.1,1.3,0.3
		c0.6,0.4,0.8,0.8,0.9,1.1l-3,1.1l-1,0.1c0.3,1.4,1.4,2.2,2.6,2.2c0.6,0,1.1-0.2,1.5-0.4L65.4,17.4L65.4,17.4z M64.2,14.1
		c0.2-0.1,0.4-0.1,0.4-0.3c0-0.4-0.6-1-1.3-1c-0.5,0-1.5,0.3-1.5,1.5c0,0.2,0,0.4,0,0.6L64.2,14.1L64.2,14.1z M66.6,12.5v0.7h-0.1
		v-0.7h-0.3v-0.1h0.7v0.1H66.6L66.6,12.5z M67.7,13.2v-0.7h0l-0.3,0.7h-0.1l-0.3-0.7h0v0.7H67v-0.8h0.2l0.2,0.7h0l0.2-0.7h0.2
		L67.7,13.2L67.7,13.2L67.7,13.2z"/>
	<path class="st5" d="M31.1,7.7h-0.6c0-0.1-0.1-0.3-0.2-0.6h-0.9c-0.1,0.4-0.2,0.6-0.2,0.6h-0.6c0,0,0.2-0.4,0.5-1.1
		c0.3-0.7,0.5-1.1,0.5-1.1h0.7c0,0.1,0.1,0.4,0.4,1.1C30.9,7.3,31.1,7.7,31.1,7.7z M30.1,6.8c-0.2-0.6-0.3-0.9-0.3-1h0
		c0,0-0.1,0.4-0.3,1L30.1,6.8L30.1,6.8z M33.6,7.7h-0.5c0,0-0.2-0.3-0.5-0.8c-0.4-0.5-0.6-0.8-0.6-1h0c0,0.3,0,0.5,0,0.7
		c0,0.3,0,0.6,0,1h-0.5c0-0.4,0-0.8,0-1.2c0-0.4,0-0.8,0-1.1h0.6c0,0.1,0.2,0.3,0.5,0.7c0.3,0.5,0.5,0.8,0.6,0.9h0
		c0-0.3,0-0.5,0-0.7c0-0.3,0-0.6,0-1h0.5c0,0.3,0,0.6,0,1.1C33.6,7,33.6,7.4,33.6,7.7z M36.5,6.5c0,0.3-0.1,0.6-0.4,0.9
		c-0.2,0.2-0.6,0.4-1,0.4c-0.2,0-0.5,0-0.8,0c0-0.3,0-0.7,0-1.2c0-0.4,0-0.8,0-1.1h0.3c0.1,0,0.1,0,0.3,0c0.1,0,0.2,0,0.2,0
		c0.5,0,0.8,0.1,1,0.3C36.4,6,36.5,6.3,36.5,6.5L36.5,6.5z M35.9,6.6c0-0.2-0.1-0.4-0.2-0.6c-0.1-0.2-0.4-0.2-0.7-0.2
		c-0.1,0-0.1,0-0.2,0c0,0.2,0,0.5,0,0.7c0,0.3,0,0.6,0,0.8c0.1,0,0.2,0,0.3,0c0.3,0,0.5-0.1,0.6-0.2C35.9,7,35.9,6.8,35.9,6.6
		L35.9,6.6z M39.1,7.7h-0.6c-0.2-0.4-0.3-0.7-0.4-0.8c-0.1-0.1-0.2-0.1-0.4-0.1c-0.1,0-0.1,0-0.2,0c0,0.3,0,0.6,0,0.9H37
		c0-0.3,0-0.7,0-1.2c0-0.4,0-0.8,0-1.1h0.3c0,0,0.1,0,0.2,0c0.1,0,0.2,0,0.3,0c0.6,0,0.9,0.2,0.9,0.5c0,0.3-0.2,0.5-0.5,0.6v0
		c0.1,0,0.2,0.1,0.3,0.3C38.8,7.1,38.9,7.3,39.1,7.7z M38.4,6.2c0-0.2-0.2-0.3-0.5-0.3c-0.1,0-0.2,0-0.3,0c0,0.2,0,0.4,0,0.7
		c0.1,0,0.1,0,0.2,0C38.1,6.5,38.4,6.4,38.4,6.2z M41.9,6.6c0,0.4-0.1,0.6-0.4,0.9c-0.2,0.2-0.6,0.4-0.9,0.4c-0.3,0-0.6-0.1-0.9-0.3
		c-0.2-0.2-0.4-0.5-0.4-0.8c0-0.4,0.1-0.6,0.4-0.9c0.2-0.2,0.6-0.4,0.9-0.4c0.3,0,0.6,0.1,0.9,0.3C41.8,6,41.9,6.2,41.9,6.6
		L41.9,6.6z M41.4,6.6c0-0.2-0.1-0.4-0.2-0.6c-0.1-0.2-0.3-0.2-0.5-0.2c-0.2,0-0.4,0.1-0.5,0.2C40,6.2,40,6.4,40,6.6
		c0,0.2,0.1,0.4,0.2,0.6c0.1,0.2,0.3,0.2,0.5,0.2c0.2,0,0.4-0.1,0.5-0.2C41.3,7,41.4,6.9,41.4,6.6L41.4,6.6z M43,7.7h-0.6
		c0-0.4,0-0.8,0-1.2c0-0.4,0-0.8,0-1.1H43c0,0.3,0,0.7,0,1.1C43,7,43,7.4,43,7.7z M45.9,6.5c0,0.3-0.1,0.6-0.4,0.9
		c-0.2,0.2-0.6,0.4-1,0.4c-0.2,0-0.5,0-0.8,0c0-0.3,0-0.7,0-1.2c0-0.4,0-0.8,0-1.1h0.3c0.1,0,0.1,0,0.3,0c0.1,0,0.2,0,0.2,0
		c0.5,0,0.8,0.1,1,0.3C45.8,6,45.9,6.3,45.9,6.5L45.9,6.5z M45.4,6.6c0-0.2-0.1-0.4-0.2-0.6c-0.1-0.2-0.4-0.2-0.7-0.2
		c-0.1,0-0.1,0-0.2,0c0,0.2,0,0.5,0,0.7c0,0.3,0,0.6,0,0.8c0.1,0,0.2,0,0.3,0c0.3,0,0.5-0.1,0.6-0.2C45.3,7,45.4,6.8,45.4,6.6z
		 M49.7,7.7h-0.6c0-0.1-0.1-0.3-0.2-0.6H48c-0.1,0.4-0.2,0.6-0.2,0.6h-0.6c0,0,0.2-0.4,0.5-1.1c0.3-0.7,0.5-1.1,0.5-1.1h0.7
		c0,0.1,0.1,0.4,0.4,1.1C49.6,7.3,49.7,7.7,49.7,7.7L49.7,7.7z M48.8,6.8c-0.2-0.6-0.3-0.9-0.3-1h0c0,0-0.1,0.4-0.3,1L48.8,6.8
		L48.8,6.8z M52,6.1c0,0.3-0.1,0.5-0.4,0.6c-0.2,0.1-0.5,0.2-0.9,0.2c-0.1,0-0.1,0-0.1,0c0,0.2,0,0.5,0,0.9h-0.6c0-0.3,0-0.7,0-1.2
		c0-0.4,0-0.8,0-1.1h0.3c0,0,0.1,0,0.3,0c0.1,0,0.3,0,0.4,0c0.2,0,0.5,0,0.6,0.1C51.9,5.7,52,5.9,52,6.1L52,6.1z M51.5,6.2
		c0-0.2-0.2-0.4-0.6-0.4c-0.1,0-0.2,0-0.3,0c0,0.2,0,0.5,0,0.7c0,0,0.1,0,0.1,0C51.3,6.6,51.5,6.4,51.5,6.2z M54.4,6.1
		c0,0.3-0.1,0.5-0.4,0.6c-0.2,0.1-0.5,0.2-0.9,0.2c-0.1,0-0.1,0-0.1,0c0,0.2,0,0.5,0,0.9h-0.6c0-0.3,0-0.7,0-1.2c0-0.4,0-0.8,0-1.1
		h0.3c0,0,0.1,0,0.3,0c0.1,0,0.3,0,0.4,0c0.2,0,0.5,0,0.6,0.1C54.3,5.7,54.4,5.9,54.4,6.1L54.4,6.1z M53.9,6.2
		c0-0.2-0.2-0.4-0.6-0.4c-0.1,0-0.2,0-0.3,0c0,0.2,0,0.5,0,0.7c0,0,0.1,0,0.1,0C53.6,6.6,53.9,6.4,53.9,6.2z M58.2,6.6
		c0,0.4-0.1,0.6-0.4,0.9c-0.2,0.2-0.6,0.4-0.9,0.4c-0.3,0-0.6-0.1-0.9-0.3c-0.2-0.2-0.4-0.5-0.4-0.8c0-0.4,0.1-0.6,0.4-0.9
		c0.2-0.2,0.6-0.4,0.9-0.4c0.3,0,0.6,0.1,0.9,0.3C58.1,6,58.2,6.2,58.2,6.6L58.2,6.6z M57.7,6.6c0-0.2-0.1-0.4-0.2-0.6
		c-0.1-0.2-0.3-0.2-0.5-0.2c-0.2,0-0.4,0.1-0.5,0.2c-0.1,0.2-0.2,0.3-0.2,0.6c0,0.2,0.1,0.4,0.2,0.6c0.1,0.2,0.3,0.2,0.5,0.2
		c0.2,0,0.4-0.1,0.5-0.2C57.6,7,57.7,6.9,57.7,6.6L57.7,6.6z M60.9,7.7h-0.5c0,0-0.2-0.3-0.5-0.8c-0.4-0.5-0.6-0.8-0.6-1h0
		c0,0.3,0,0.5,0,0.7c0,0.3,0,0.6,0,1h-0.5c0-0.4,0-0.8,0-1.2c0-0.4,0-0.8,0-1.1h0.6c0,0.1,0.2,0.3,0.5,0.7c0.3,0.5,0.5,0.8,0.6,0.9
		h0c0-0.3,0-0.5,0-0.7c0-0.3,0-0.6,0-1h0.5c0,0.3,0,0.6,0,1.1C60.9,7,60.9,7.4,60.9,7.7z"/>
</g>
</svg>
