<?xml version="1.0" encoding="utf-8"?>
<!-- Generator: Adobe Illustrator 24.3.0, SVG Export Plug-In . SVG Version: 6.00 Build 0)  -->
<svg version="1.1" id="图层_1" xmlns="http://www.w3.org/2000/svg" xmlns:xlink="http://www.w3.org/1999/xlink" x="0px" y="0px"
	 viewBox="0 0 94 27" style="enable-background:new 0 0 94 27;" xml:space="preserve">
<style type="text/css">
	.st0{fill:#FFFFFF;}
	.st1{font-family:'SegoePrint';}
	.st2{font-size:7.36px;}
	.st3{clip-path:url(#SVGID_2_);fill:#FFFFFF;}
	.st4{clip-path:url(#SVGID_4_);fill:#FFFFFF;}
	.st5{clip-path:url(#SVGID_6_);fill:#FFFFFF;}
	.st6{clip-path:url(#SVGID_8_);fill:#FFFFFF;}
	.st7{clip-path:url(#SVGID_10_);fill:#FFFFFF;}
</style>
<g>
	<text transform="matrix(1 0 0 1 23.8525 10.6797)" class="st0 st1 st2">D</text>
	<text transform="matrix(1 0 0 1 27.5425 10.6797)" class="st0 st1 st2">o</text>
	<text transform="matrix(1 0 0 1 41.9877 10.6797)" class="st0 st1 st2">l</text>
	<text transform="matrix(1 0 0 1 45.6377 10.6797)" class="st0 st1 st2">o</text>
	<text transform="matrix(1 0 0 1 61.2783 10.6797)" class="st0 st1 st2">o</text>
	<text transform="matrix(1 0 0 1 64.9383 10.6797)" class="st0 st1 st2">m</text>
	<g>
		<g>
			<defs>
				<path id="SVGID_1_" d="M96.3,26.3V3.6c0-1.6-1.3-2.9-2.9-2.9H0.6C-1,0.7-2.3,2-2.3,3.6v22.7"/>
			</defs>
			<clipPath id="SVGID_2_">
				<use xlink:href="#SVGID_1_"  style="overflow:visible;"/>
			</clipPath>
			<path class="st3" d="M10.6,5.5c0,0.1,0.1,0.3,0.1,0.5c-0.7,0.3-1,0.5-1,1.6v0.7L9.2,8.5V7.7C9.2,6.1,9.8,5.8,10.6,5.5 M12.1,5.2
				c0,0.2,0.1,0.3,0.1,0.5c1.3-0.2,1.3,0.4,1.3,1.5v0.4l0.5-0.1V7.2C13.9,5.4,13.7,5,12.1,5.2 M6.9,8.9V6.6c0-1.4,0.7-1.9,2.1-2.2
				c2.1-0.5,2.2,0.9,2.2,1.7v2L11.7,8V6.1c0-1.6-0.5-2.8-2.8-2.3C7.6,4.1,6.4,4.5,6.4,6.6V9L6.9,8.9z M12.9,15H9v-2.8l3.9-0.6V15z
				 M12.9,19L9,18.4v-3h3.9V19z M8.7,15H5.6v-2.4l3.1-0.4V15z M8.7,18.4L5.6,18v-2.6h3.1V18.4z M16.5,7.6L2.6,10.4v10.1l13.9,2.8
				l2.8-1V8.6L16.5,7.6z"/>
		</g>
	</g>
	<text transform="matrix(1 0 0 1 23.8525 10.6797)" class="st0 st1 st2">D</text>
	<text transform="matrix(1 0 0 1 27.5425 10.6797)" class="st0 st1 st2">o</text>
	<text transform="matrix(1 0 0 1 41.9877 10.6797)" class="st0 st1 st2">l</text>
	<text transform="matrix(1 0 0 1 45.6377 10.6797)" class="st0 st1 st2">o</text>
	<text transform="matrix(1 0 0 1 61.2783 10.6797)" class="st0 st1 st2">o</text>
	<text transform="matrix(1 0 0 1 64.9383 10.6797)" class="st0 st1 st2">m</text>
	<path d="M94,24.3V3.1C94,1.4,92.8,0,91.2,0H2.8C1.2,0,0,1.4,0,3.1v21.2C0,25.8,1.1,27,2.5,27h89.1C92.9,27,94,25.8,94,24.3z"/>
	<g>
		<g>
			<defs>
				<path id="SVGID_3_" d="M96.3,26.3V3.6c0-1.6-1.3-2.9-2.9-2.9H0.6C-1,0.7-2.3,2-2.3,3.6v22.7"/>
			</defs>
			<clipPath id="SVGID_4_">
				<use xlink:href="#SVGID_3_"  style="overflow:visible;"/>
			</clipPath>
			<path class="st4" d="M10.6,5.5c0,0.1,0.1,0.3,0.1,0.5c-0.7,0.3-1,0.5-1,1.6v0.7L9.2,8.5V7.7C9.2,6.1,9.8,5.8,10.6,5.5 M12.1,5.2
				c0,0.2,0.1,0.3,0.1,0.5c1.3-0.2,1.3,0.4,1.3,1.5v0.4l0.5-0.1V7.2C13.9,5.4,13.7,5,12.1,5.2 M6.9,8.9V6.6c0-1.4,0.7-1.9,2.1-2.2
				c2.1-0.5,2.2,0.9,2.2,1.7v2L11.7,8V6.1c0-1.6-0.5-2.8-2.8-2.3C7.6,4.1,6.4,4.5,6.4,6.6V9L6.9,8.9z M12.9,15H9v-2.8l3.9-0.6V15z
				 M12.9,19L9,18.4v-3h3.9V19z M8.7,15H5.6v-2.4l3.1-0.4V15z M8.7,18.4L5.6,18v-2.6h3.1V18.4z M16.5,7.6L2.6,10.4v10.1l13.9,2.8
				l2.8-1V8.6L16.5,7.6z"/>
		</g>
		<g>
			<defs>
				<path id="SVGID_5_" d="M96.3,26.3V3.6c0-1.6-1.3-2.9-2.9-2.9H0.6C-1,0.7-2.3,2-2.3,3.6v22.7"/>
			</defs>
			<clipPath id="SVGID_6_">
				<use xlink:href="#SVGID_5_"  style="overflow:visible;"/>
			</clipPath>
			<path class="st5" d="M28.7,8c0,0.5-0.1,1-0.3,1.4c-0.2,0.4-0.5,0.7-1,0.9c-0.4,0.2-0.9,0.3-1.4,0.3h-1.3V5.5H26
				C27.8,5.5,28.7,6.3,28.7,8 M28,8c0-1.3-0.7-1.9-2.1-1.9h-0.8v4h0.8c0.7,0,1.2-0.2,1.6-0.5C27.9,9.2,28,8.7,28,8 M32.9,8.8
				c0,0.6-0.2,1-0.5,1.4s-0.8,0.5-1.3,0.5c-0.5,0-1-0.2-1.3-0.5s-0.5-0.8-0.5-1.4c0-0.6,0.2-1.1,0.5-1.4s0.8-0.5,1.4-0.5
				c0.5,0,1,0.2,1.3,0.5C32.7,7.7,32.9,8.2,32.9,8.8 M32.3,8.8c0-0.5-0.1-0.8-0.3-1.1c-0.2-0.2-0.5-0.4-0.9-0.4
				c-0.4,0-0.7,0.1-0.9,0.4c-0.2,0.2-0.3,0.6-0.3,1c0,0.4,0.1,0.8,0.3,1c0.2,0.2,0.5,0.4,0.9,0.4c0.4,0,0.7-0.1,0.9-0.4
				C32.2,9.6,32.3,9.2,32.3,8.8 M38.3,7l-1.1,3.6h-0.6L35.9,8c0-0.1,0-0.2-0.1-0.3h0c0,0.1,0,0.2-0.1,0.3L35,10.6h-0.6L33.3,7h0.6
				l0.8,2.7c0,0.1,0,0.2,0,0.3h0c0-0.1,0-0.2,0.1-0.3L35.6,7h0.5l0.7,2.7c0,0.1,0,0.2,0,0.3h0c0-0.1,0-0.2,0.1-0.3L37.8,7H38.3z
				 M42,10.6h-0.6V8.5c0-0.8-0.3-1.1-0.8-1.1c-0.3,0-0.5,0.1-0.7,0.3c-0.2,0.2-0.3,0.5-0.3,0.8v2.1H39V7h0.6v0.6h0
				c0.3-0.5,0.7-0.7,1.2-0.7c0.4,0,0.7,0.1,0.9,0.4C41.9,7.5,42,7.9,42,8.4L42,10.6L42,10.6z M43.7,10.6h-0.6V5.2h0.6V10.6z
				 M48.2,8.8c0,0.6-0.2,1-0.5,1.4s-0.8,0.5-1.3,0.5s-1-0.2-1.3-0.5s-0.5-0.8-0.5-1.4c0-0.6,0.2-1.1,0.5-1.4s0.8-0.5,1.3-0.5
				c0.5,0,1,0.2,1.3,0.5C48,7.7,48.2,8.2,48.2,8.8 M47.6,8.8c0-0.5-0.1-0.8-0.3-1.1c-0.2-0.2-0.5-0.4-0.9-0.4s-0.7,0.1-0.9,0.4
				s-0.3,0.6-0.3,1c0,0.4,0.1,0.8,0.3,1c0.2,0.2,0.5,0.4,0.9,0.4c0.4,0,0.7-0.1,0.9-0.4C47.5,9.6,47.6,9.2,47.6,8.8 M51.6,10.6H51
				V10h0c-0.2,0.4-0.6,0.7-1.1,0.7c-0.3,0-0.6-0.1-0.8-0.3s-0.3-0.4-0.3-0.8c0-0.7,0.4-1.1,1.2-1.2l1.1-0.1c0-0.6-0.2-0.9-0.8-0.9
				c-0.4,0-0.8,0.2-1.2,0.4V7.2c0.1-0.1,0.3-0.2,0.5-0.2c0.3-0.1,0.5-0.1,0.7-0.1c0.8,0,1.3,0.4,1.3,1.4L51.6,10.6L51.6,10.6z
				 M51,8.8l-0.9,0.1c-0.3,0-0.5,0.1-0.6,0.2c-0.1,0.1-0.2,0.3-0.2,0.5c0,0.2,0.1,0.3,0.2,0.4c0.1,0.1,0.3,0.2,0.5,0.2
				c0.3,0,0.5-0.1,0.7-0.3C50.9,9.7,51,9.4,51,9.1L51,8.8L51,8.8z M55.8,10.6h-0.6V10h0c-0.3,0.5-0.7,0.7-1.2,0.7
				c-0.5,0-0.8-0.2-1.1-0.5c-0.3-0.3-0.4-0.8-0.4-1.3c0-0.6,0.2-1.1,0.5-1.4s0.7-0.5,1.2-0.5c0.5,0,0.9,0.2,1.1,0.6h0V5.2h0.6V10.6z
				 M55.2,8.9V8.4c0-0.3-0.1-0.5-0.3-0.7s-0.4-0.3-0.7-0.3c-0.3,0-0.6,0.1-0.8,0.4C53.1,8,53,8.4,53,8.8c0,0.4,0.1,0.7,0.3,1
				c0.2,0.2,0.5,0.4,0.8,0.4c0.3,0,0.6-0.1,0.8-0.4C55.1,9.6,55.2,9.3,55.2,8.9 M60.4,5.7c-0.1-0.1-0.2-0.1-0.4-0.1
				c-0.4,0-0.6,0.3-0.6,0.8V7h0.8v0.5h-0.8v3.1h-0.6V7.5h-0.6V7h0.6V6.4c0-0.4,0.1-0.7,0.3-0.9s0.5-0.3,0.8-0.3c0.2,0,0.3,0,0.4,0.1
				V5.7z M62.8,7.6c-0.1-0.1-0.2-0.1-0.4-0.1c-0.3,0-0.5,0.1-0.6,0.4c-0.2,0.2-0.2,0.6-0.2,0.9v1.9h-0.6V7h0.6v0.8h0
				c0.1-0.2,0.2-0.4,0.4-0.6C62,7,62.2,6.9,62.5,6.9c0.2,0,0.3,0,0.3,0.1L62.8,7.6L62.8,7.6z M66.6,8.8c0,0.6-0.2,1-0.5,1.4
				c-0.3,0.4-0.8,0.5-1.3,0.5c-0.5,0-1-0.2-1.3-0.5s-0.5-0.8-0.5-1.4c0-0.6,0.2-1.1,0.5-1.4c0.3-0.3,0.8-0.5,1.4-0.5
				c0.5,0,1,0.2,1.3,0.5C66.5,7.7,66.6,8.2,66.6,8.8 M66,8.8c0-0.5-0.1-0.8-0.3-1.1c-0.2-0.2-0.5-0.4-0.9-0.4S64.2,7.5,64,7.7
				s-0.3,0.6-0.3,1c0,0.4,0.1,0.8,0.3,1c0.2,0.2,0.5,0.4,0.9,0.4c0.4,0,0.7-0.1,0.9-0.4C65.9,9.6,66,9.2,66,8.8 M72.7,10.6h-0.6V8.5
				c0-0.4-0.1-0.7-0.2-0.9c-0.1-0.2-0.3-0.3-0.6-0.3c-0.2,0-0.5,0.1-0.6,0.3s-0.3,0.5-0.3,0.8v2.1h-0.6V8.4c0-0.7-0.3-1.1-0.8-1.1
				c-0.2,0-0.5,0.1-0.6,0.3s-0.2,0.5-0.2,0.8v2.1h-0.6V7h0.6v0.6h0c0.3-0.4,0.6-0.7,1.1-0.7c0.2,0,0.4,0.1,0.6,0.2
				c0.2,0.1,0.3,0.3,0.4,0.6c0.3-0.5,0.7-0.8,1.2-0.8c0.8,0,1.2,0.5,1.2,1.5C72.7,8.4,72.7,10.6,72.7,10.6z"/>
		</g>
		<g>
			<defs>
				<path id="SVGID_7_" d="M96.3,26.3V3.6c0-1.6-1.3-2.9-2.9-2.9H0.6C-1,0.7-2.3,2-2.3,3.6v22.7"/>
			</defs>
			<clipPath id="SVGID_8_">
				<use xlink:href="#SVGID_7_"  style="overflow:visible;"/>
			</clipPath>
			<path class="st6" d="M33.9,13.8l-2.1,7.6h-1l-1.6-5.5c-0.1-0.2-0.1-0.5-0.1-0.8h0c0,0.3-0.1,0.5-0.1,0.8l-1.6,5.5h-1l-2.2-7.6h1
				l1.6,5.8c0.1,0.3,0.1,0.5,0.1,0.8h0c0-0.2,0.1-0.5,0.2-0.8l1.7-5.8h0.9l1.6,5.8c0.1,0.2,0.1,0.5,0.1,0.7h0c0-0.2,0.1-0.4,0.1-0.7
				l1.5-5.8C32.9,13.9,33.9,13.9,33.9,13.8z M35.6,14.2c0,0.2-0.1,0.3-0.2,0.4c-0.1,0.1-0.2,0.2-0.4,0.2c-0.2,0-0.3-0.1-0.4-0.1
				c-0.1-0.1-0.2-0.2-0.2-0.4c0-0.1,0.1-0.3,0.2-0.4c0.1-0.1,0.2-0.2,0.4-0.2s0.3,0.1,0.4,0.2C35.5,13.9,35.6,14.1,35.6,14.2
				 M35.4,21.4h-0.9V16h0.9V21.4z M41.2,21.4h-0.9v-3.1c0-1.1-0.4-1.7-1.2-1.7c-0.4,0-0.8,0.2-1.1,0.5s-0.4,0.7-0.4,1.2v3.1h-0.9V16
				h0.9v0.9h0c0.4-0.7,1-1,1.8-1c0.6,0,1,0.2,1.4,0.6c0.3,0.4,0.5,0.9,0.5,1.6L41.2,21.4L41.2,21.4z M47.2,21.4h-0.9v-0.9h0
				c-0.4,0.7-1,1-1.8,1c-0.7,0-1.2-0.2-1.6-0.7c-0.4-0.5-0.6-1.1-0.6-2c0-0.9,0.2-1.6,0.7-2.1c0.5-0.5,1-0.8,1.8-0.8
				c0.7,0,1.3,0.3,1.6,0.9h0v-3.3h0.9L47.2,21.4L47.2,21.4z M46.4,19v-0.8c0-0.5-0.2-0.8-0.4-1.1c-0.3-0.3-0.7-0.4-1.1-0.4
				c-0.5,0-0.9,0.2-1.2,0.6c-0.3,0.4-0.5,0.9-0.5,1.6c0,0.6,0.2,1.1,0.4,1.5c0.3,0.4,0.7,0.5,1.2,0.5c0.5,0,0.9-0.2,1.2-0.5
				C46.2,19.9,46.4,19.5,46.4,19 M53.6,18.7c0,0.9-0.2,1.5-0.7,2.1c-0.5,0.5-1.1,0.8-2,0.8c-0.8,0-1.4-0.2-1.9-0.8s-0.7-1.2-0.7-2
				c0-0.9,0.2-1.6,0.7-2.1c0.5-0.5,1.2-0.8,2-0.8c0.8,0,1.4,0.2,1.9,0.7C53.4,17.1,53.6,17.8,53.6,18.7 M52.7,18.7
				c0-0.7-0.2-1.2-0.5-1.6c-0.3-0.4-0.7-0.5-1.3-0.5c-0.5,0-1,0.2-1.3,0.6c-0.3,0.4-0.5,0.9-0.5,1.6c0,0.6,0.2,1.1,0.5,1.5
				c0.3,0.4,0.8,0.5,1.3,0.5c0.6,0,1-0.2,1.3-0.5C52.6,19.9,52.7,19.4,52.7,18.7 M61.5,16l-1.6,5.4h-0.9l-1.1-3.9
				c0-0.1-0.1-0.3-0.1-0.5h0c0,0.1,0,0.3-0.1,0.5l-1.2,3.9h-0.9L53.9,16h0.9l1.1,4.1c0,0.1,0.1,0.3,0.1,0.5h0c0-0.1,0-0.3,0.1-0.5
				l1.2-4h0.8l1.1,4.1c0,0.1,0.1,0.3,0.1,0.5h0c0-0.2,0-0.3,0.1-0.5l1.1-4.1L61.5,16L61.5,16z M65.2,20c0,0.5-0.2,0.9-0.5,1.1
				c-0.4,0.3-0.8,0.4-1.4,0.4c-0.5,0-1-0.1-1.3-0.3v-0.9c0.4,0.3,0.9,0.5,1.4,0.5c0.7,0,1-0.2,1-0.8c0-0.2-0.1-0.4-0.2-0.5
				s-0.4-0.3-0.9-0.5c-0.5-0.2-0.8-0.4-1-0.7c-0.2-0.2-0.3-0.5-0.3-0.9c0-0.5,0.2-0.8,0.5-1.1c0.4-0.3,0.8-0.4,1.4-0.4
				c0.4,0,0.8,0.1,1.2,0.2V17c-0.3-0.3-0.8-0.4-1.2-0.4c-0.3,0-0.5,0.1-0.7,0.2c-0.2,0.1-0.3,0.3-0.3,0.5c0,0.2,0.1,0.4,0.2,0.5
				s0.4,0.3,0.8,0.5c0.5,0.2,0.9,0.5,1.1,0.7C65,19.3,65.2,19.6,65.2,20"/>
		</g>
		<g>
			<defs>
				<path id="SVGID_9_" d="M96.3,24.3V3.6c0-1.6-1.3-2.9-2.9-2.9H0.6C-1,0.7-2.3,2-2.3,3.6v20.8c0,1.1,0.9,1.9,1.9,1.9h94.6
					C95.4,26.3,96.3,25.4,96.3,24.3z"/>
			</defs>
			<clipPath id="SVGID_10_">
				<use xlink:href="#SVGID_9_"  style="overflow:visible;"/>
			</clipPath>
			<path class="st7" d="M72.8,19.5c0,0.6-0.2,1.1-0.7,1.5c-0.4,0.4-1.1,0.5-1.8,0.5c-0.3,0-0.6,0-0.9-0.1s-0.6-0.2-0.8-0.3v-1
				c0.2,0.2,0.5,0.4,0.8,0.5s0.7,0.2,1,0.2c1,0,1.4-0.4,1.4-1.1c0-0.3-0.1-0.6-0.3-0.8c-0.2-0.2-0.6-0.5-1.3-0.9
				c-0.6-0.4-1.1-0.7-1.3-1c-0.2-0.3-0.4-0.7-0.4-1.1c0-0.6,0.2-1.1,0.7-1.5s1-0.6,1.7-0.6c0.7,0,1.2,0.1,1.5,0.3v1
				c-0.4-0.3-0.9-0.5-1.5-0.5c-0.4,0-0.8,0.1-1,0.3c-0.3,0.2-0.4,0.5-0.4,0.8c0,0.2,0,0.4,0.1,0.6s0.2,0.3,0.4,0.5s0.5,0.4,0.9,0.6
				c0.7,0.4,1.1,0.7,1.4,1C72.7,18.7,72.8,19.1,72.8,19.5 M76.4,21.3c-0.2,0.1-0.5,0.2-0.8,0.2c-0.9,0-1.4-0.5-1.4-1.6v-3.2h-0.9V16
				h0.9v-1.3l0.9-0.3V16h1.4v0.7h-1.4v3c0,0.4,0.1,0.6,0.2,0.8s0.3,0.2,0.6,0.2c0.2,0,0.4-0.1,0.6-0.2V21.3z M82.4,18.7
				c0,0.9-0.2,1.5-0.7,2.1c-0.5,0.5-1.1,0.8-2,0.8c-0.8,0-1.4-0.2-1.9-0.8s-0.7-1.2-0.7-2c0-0.9,0.2-1.6,0.7-2.1
				c0.5-0.5,1.2-0.8,2-0.8c0.8,0,1.4,0.2,1.9,0.7C82.1,17.1,82.4,17.8,82.4,18.7 M81.5,18.7c0-0.7-0.2-1.2-0.4-1.6
				c-0.3-0.4-0.7-0.5-1.3-0.5s-1,0.2-1.3,0.6s-0.5,0.9-0.5,1.6c0,0.6,0.2,1.1,0.5,1.5c0.3,0.4,0.8,0.5,1.3,0.5s1-0.2,1.3-0.5
				C81.3,19.9,81.5,19.4,81.5,18.7 M86.1,16.9c-0.2-0.1-0.4-0.2-0.7-0.2c-0.4,0-0.7,0.2-0.9,0.5s-0.4,0.8-0.4,1.4v2.8h-0.9V16h0.9
				v1.1h0c0.1-0.4,0.3-0.7,0.6-0.9c0.2-0.2,0.5-0.3,0.9-0.3c0.2,0,0.4,0,0.5,0.1C86.1,16,86.1,16.9,86.1,16.9z M91.3,18.9h-3.8
				c0,0.6,0.2,1.1,0.5,1.4c0.3,0.3,0.7,0.5,1.3,0.5c0.6,0,1.2-0.2,1.7-0.6V21c-0.5,0.4-1.1,0.5-1.9,0.5c-0.8,0-1.4-0.2-1.8-0.8
				s-0.7-1.2-0.7-2.1c0-0.5,0.1-1,0.3-1.5c0.2-0.4,0.5-0.8,0.9-1c0.4-0.2,0.8-0.4,1.3-0.4c0.7,0,1.2,0.2,1.6,0.7s0.6,1.1,0.6,1.9
				L91.3,18.9L91.3,18.9z M90.4,18.2c0-0.5-0.1-0.9-0.4-1.2c-0.2-0.3-0.6-0.4-1-0.4c-0.4,0-0.7,0.1-1,0.4s-0.5,0.7-0.5,1.1H90.4z"/>
		</g>
	</g>
</g>
</svg>
